<svg width="48" height="48" viewBox="0 0 48 48" fill="none" xmlns="http://www.w3.org/2000/svg">
<g filter="url(#filter0_f_92_135)">
<path d="M35 14.8333V26.75C35 27.2362 34.8068 27.7025 34.463 28.0464C34.1192 28.3902 33.6529 28.5833 33.1667 28.5833H20.7126L21.8985 29.7681C21.9837 29.8533 22.0513 29.9544 22.0974 30.0657C22.1435 30.177 22.1672 30.2962 22.1672 30.4167C22.1672 30.5371 22.1435 30.6564 22.0974 30.7677C22.0513 30.8789 21.9837 30.98 21.8985 31.0652C21.8134 31.1504 21.7123 31.2179 21.601 31.264C21.4897 31.3101 21.3704 31.3338 21.25 31.3338C21.1296 31.3338 21.0103 31.3101 20.899 31.264C20.7877 31.2179 20.6866 31.1504 20.6015 31.0652L17.8515 28.3152C17.7662 28.2301 17.6986 28.129 17.6525 28.0177C17.6064 27.9064 17.5826 27.7871 17.5826 27.6667C17.5826 27.5462 17.6064 27.4269 17.6525 27.3156C17.6986 27.2044 17.7662 27.1033 17.8515 27.0181L20.6015 24.2681C20.7735 24.0961 21.0068 23.9995 21.25 23.9995C21.4933 23.9995 21.7265 24.0961 21.8985 24.2681C22.0705 24.4401 22.1672 24.6734 22.1672 24.9167C22.1672 25.1599 22.0705 25.3932 21.8985 25.5652L20.7126 26.75H33.1667V14.8333H20.3333V15.75C20.3333 15.9931 20.2368 16.2263 20.0648 16.3982C19.8929 16.5701 19.6598 16.6667 19.4167 16.6667C19.1736 16.6667 18.9404 16.5701 18.7685 16.3982C18.5966 16.2263 18.5 15.9931 18.5 15.75V14.8333C18.5 14.3471 18.6932 13.8808 19.037 13.537C19.3808 13.1932 19.8471 13 20.3333 13H33.1667C33.6529 13 34.1192 13.1932 34.463 13.537C34.8068 13.8808 35 14.3471 35 14.8333ZM28.5833 31.3333C28.3402 31.3333 28.1071 31.4299 27.9352 31.6018C27.7632 31.7737 27.6667 32.0069 27.6667 32.25V33.1667H14.8333V21.25H27.2874L26.1015 22.4348C25.9295 22.6068 25.8328 22.8401 25.8328 23.0833C25.8328 23.3266 25.9295 23.5599 26.1015 23.7319C26.2735 23.9039 26.5068 24.0005 26.75 24.0005C26.9933 24.0005 27.2265 23.9039 27.3985 23.7319L30.1485 20.9819C30.2338 20.8967 30.3014 20.7956 30.3475 20.6844C30.3936 20.5731 30.4174 20.4538 30.4174 20.3333C30.4174 20.2129 30.3936 20.0936 30.3475 19.9823C30.3014 19.871 30.2338 19.7699 30.1485 19.6848L27.3985 16.9348C27.2265 16.7628 26.9933 16.6662 26.75 16.6662C26.5068 16.6662 26.2735 16.7628 26.1015 16.9348C25.9295 17.1068 25.8328 17.3401 25.8328 17.5833C25.8328 17.8266 25.9295 18.0599 26.1015 18.2319L27.2874 19.4167H14.8333C14.3471 19.4167 13.8808 19.6098 13.537 19.9536C13.1932 20.2975 13 20.7638 13 21.25V33.1667C13 33.6529 13.1932 34.1192 13.537 34.463C13.8808 34.8068 14.3471 35 14.8333 35H27.6667C28.1529 35 28.6192 34.8068 28.963 34.463C29.3068 34.1192 29.5 33.6529 29.5 33.1667V32.25C29.5 32.0069 29.4034 31.7737 29.2315 31.6018C29.0596 31.4299 28.8264 31.3333 28.5833 31.3333Z" fill="url(#paint0_linear_92_135)" fill-opacity="0.4"/>
</g>
<defs>
<filter id="filter0_f_92_135" x="-3" y="-3" width="54" height="54" filterUnits="userSpaceOnUse" color-interpolation-filters="sRGB">
<feFlood flood-opacity="0" result="BackgroundImageFix"/>
<feBlend mode="normal" in="SourceGraphic" in2="BackgroundImageFix" result="shape"/>
<feGaussianBlur stdDeviation="8" result="effect1_foregroundBlur_92_135"/>
</filter>
<linearGradient id="paint0_linear_92_135" x1="35.264" y1="35.264" x2="13" y2="13" gradientUnits="userSpaceOnUse">
<stop stop-color="#A86EFF"/>
<stop offset="1" stop-color="#FFDE69"/>
</linearGradient>
</defs>
</svg>
